<svg width="19" height="19" viewBox="0 0 19 19" fill="none" xmlns="http://www.w3.org/2000/svg">
<g clip-path="url(#clip0)">
<path d="M10.9143 9.50099L18.7071 1.7081C19.0976 1.31756 19.0976 0.684405 18.7071 0.293904C18.3166 -0.0966352 17.6834 -0.0966352 17.2929 0.293904L9.49998 8.08679L1.7071 0.293904C1.31656 -0.0966352 0.683405 -0.0966352 0.292904 0.293904C-0.0975975 0.684442 -0.0976346 1.3176 0.292904 1.7081L8.08578 9.50099L0.292904 17.2939C-0.0976346 17.6844 -0.0976346 18.3176 0.292904 18.7081C0.683442 19.0986 1.3166 19.0986 1.7071 18.7081L9.49998 10.9152L17.2928 18.7081C17.6834 19.0986 18.3166 19.0986 18.7071 18.7081C19.0976 18.3175 19.0976 17.6844 18.7071 17.2939L10.9143 9.50099Z" fill="white"/>
</g>
<defs>
<clipPath id="clip0">
<rect width="19" height="19" fill="white"/>
</clipPath>
</defs>
</svg>
