<svg width="12" height="19" viewBox="0 0 12 19" fill="none" xmlns="http://www.w3.org/2000/svg">
<path d="M3.75088 9.50402L10.8587 2.39585C11.0545 2.2006 11.1621 1.93954 11.1621 1.66119C11.1621 1.38267 11.0545 1.12177 10.8587 0.926211L10.2359 0.303691C10.0405 0.107821 9.77929 0 9.50093 0C9.22257 0 8.96167 0.107821 8.76611 0.303691L0.303077 8.76657C0.106744 8.96275 -0.000768219 9.22489 4.1385e-06 9.50355C-0.000768219 9.78345 0.10659 10.0453 0.303077 10.2416L8.75823 18.6963C8.95379 18.8922 9.21469 19 9.49321 19C9.77156 19 10.0325 18.8922 10.2282 18.6963L10.8509 18.0738C11.256 17.6686 11.256 17.009 10.8509 16.604L3.75088 9.50402Z" fill="white"/>
</svg>
