<svg width="11" height="19" viewBox="0 0 11 19" fill="none" xmlns="http://www.w3.org/2000/svg">
<path d="M7.35807 9.50402L0.456687 2.39585C0.266657 2.2006 0.162118 1.93954 0.162118 1.66119C0.162118 1.38267 0.266657 1.12177 0.456687 0.926211L1.06142 0.303691C1.25115 0.107821 1.50478 0 1.77505 0C2.04532 0 2.29865 0.107821 2.48853 0.303691L10.7057 8.76657C10.8964 8.96275 11.0007 9.22489 11 9.50355C11.0007 9.78345 10.8965 10.0453 10.7057 10.2416L2.49618 18.6963C2.3063 18.8922 2.05297 19 1.78255 19C1.51228 19 1.25895 18.8922 1.06892 18.6963L0.464336 18.0738C0.0709276 17.6686 0.0709276 17.009 0.464336 16.604L7.35807 9.50402Z" fill="white"/>
</svg>
