<svg width="37" height="37" viewBox="0 0 37 37" fill="none" xmlns="http://www.w3.org/2000/svg">
<path d="M35.1499 16.65H20.3501V1.84989C20.3501 0.828909 19.5212 0 18.4999 0C17.4789 0 16.65 0.828909 16.65 1.84989V16.65H1.84989C0.828909 16.65 0 17.4789 0 18.4999C0 19.5212 0.828909 20.3501 1.84989 20.3501H16.65V35.1499C16.65 36.1712 17.4789 37.0001 18.4999 37.0001C19.5212 37.0001 20.3501 36.1712 20.3501 35.1499V20.3501H35.1499C36.1712 20.3501 37.0001 19.5212 37.0001 18.4999C37.0001 17.4789 36.1712 16.65 35.1499 16.65Z" fill="white"/>
</svg>
