<svg width="20" height="20" viewBox="0 0 20 20" fill="none" xmlns="http://www.w3.org/2000/svg">
<g clip-path="url(#clip0)">
<path d="M18.279 3.40487L15.1198 0.220789C14.8292 -0.0719862 14.3568 -0.0737441 14.0643 0.21657C13.7717 0.506884 13.7698 0.97927 14.0601 1.27181L16.6957 3.92831L14.0621 6.56192C13.7705 6.85321 13.7705 7.32587 14.0621 7.61716C14.2078 7.76294 14.3986 7.83583 14.5897 7.83583C14.7807 7.83583 14.9718 7.76294 15.1175 7.61743L18.2768 4.4582C18.5675 4.16757 18.5683 3.69667 18.279 3.40487Z" fill="#FD4848"/>
<path d="M17.7737 3.18396H2.22636C1.81417 3.18396 1.4801 3.51802 1.4801 3.93021V9.70138C1.4801 10.1136 1.81417 10.4476 2.22636 10.4476C2.63855 10.4476 2.97261 10.1136 2.97261 9.70138V4.67651H17.7737C18.1859 4.67651 18.5199 4.34244 18.5199 3.93025C18.52 3.51806 18.1859 3.18396 17.7737 3.18396Z" fill="#FD4848"/>
<path d="M3.27983 16.0716L5.91344 13.4383C6.20473 13.147 6.20501 12.6746 5.91344 12.383C5.62192 12.0915 5.14926 12.0915 4.85797 12.383L1.69873 15.542C1.40795 15.8326 1.40693 16.3035 1.6965 16.5953L4.85574 19.7793C5.00176 19.9264 5.19379 20 5.38559 20C5.57563 20 5.76571 19.9279 5.91121 19.7836C6.20375 19.4933 6.20575 19.0209 5.91543 18.7281L3.27983 16.0716Z" fill="#FD4848"/>
<path d="M17.7488 9.30341C17.3366 9.30341 17.0026 9.63748 17.0026 10.0497V15.3233H2.22636C1.81417 15.3233 1.4801 15.6574 1.4801 16.0696C1.4801 16.4818 1.81417 16.8158 2.22636 16.8158H17.7491C18.1613 16.8158 18.4954 16.4818 18.4951 16.0696V10.0497C18.4951 9.63752 18.161 9.30341 17.7488 9.30341Z" fill="#FD4848"/>
</g>
<defs>
<clipPath id="clip0">
<rect width="20" height="20" fill="white"/>
</clipPath>
</defs>
</svg>
