<svg width="303" height="50" viewBox="0 0 303 50" fill="none" xmlns="http://www.w3.org/2000/svg">
<g clip-path="url(#clip0)">
<path d="M2.08088 49.9993V41.0113H23.5095C24.5156 41.0268 25.5058 40.7586 26.3666 40.2374C27.2246 39.7286 27.941 39.0122 28.4499 38.1541C28.973 37.2723 29.2409 36.2626 29.2237 35.2374C29.2309 34.1947 28.9641 33.1684 28.4499 32.2613C27.941 31.4032 27.2246 30.6868 26.3666 30.1779C25.5058 29.6568 24.5156 29.3886 23.5095 29.4041H15.1166C12.4767 29.4337 9.86687 28.8424 7.49755 27.6779C5.24753 26.5734 3.35084 24.8623 2.02136 22.7374C0.61096 20.3651 -0.091275 17.6388 -0.00245433 14.8803C-0.0836225 12.1378 0.574275 9.424 1.90231 7.02316C3.14489 4.85272 4.9559 3.06228 7.1404 1.84459C9.35799 0.604957 11.8619 -0.0312953 14.4023 -0.000652202H36.1285V8.98744H15.4142C14.4858 8.99417 13.5781 9.26236 12.7952 9.76125C11.9774 10.2892 11.3188 11.03 10.8904 11.9041C10.4373 12.7442 10.2115 13.688 10.2356 14.6422C10.2115 15.5964 10.4373 16.5403 10.8904 17.3803C11.3415 18.1757 11.9998 18.8339 12.7952 19.2851C13.588 19.7545 14.4928 20.0013 15.4142 19.9993H23.8071C26.6107 19.9258 29.3898 20.5388 31.9023 21.7851C34.1094 22.9117 35.9477 24.6468 37.1999 26.7851C38.5014 29.0668 39.1597 31.6588 39.1047 34.2851C39.1847 37.2813 38.5091 40.2495 37.1404 42.916C35.9272 45.1898 34.0891 47.0693 31.8428 48.3327C29.6035 49.572 27.0805 50.2079 24.5214 50.1779L2.08088 49.9993Z" fill="#F2F2F2"/>
<path d="M59.5237 50C56.8662 50.0298 54.2514 49.3298 51.9642 47.9762C49.7203 46.6699 47.8538 44.8035 46.5475 42.5595C45.194 40.2723 44.494 37.6576 44.5237 35C44.5192 33.0394 44.9674 31.1043 45.8332 29.3453C46.6921 27.5847 47.8848 26.0079 49.3452 24.7024C47.8848 23.3969 46.6921 21.82 45.8332 20.0595C44.9702 18.3207 44.522 16.4055 44.5237 14.4643C44.4842 11.8698 45.1641 9.31503 46.488 7.08335C47.8467 4.93766 49.7319 3.17539 51.9642 1.9643C54.2489 0.611121 56.8692 -0.0697397 59.5237 1.76779e-05H80.119V8.98811H60.4166C59.45 8.98847 58.5023 9.25629 57.6785 9.76192C56.8349 10.2952 56.139 11.0321 55.6547 11.9048C55.1442 12.7483 54.8764 13.7164 54.8809 14.7024C54.8812 15.669 55.149 16.6167 55.6547 17.4405C56.1546 18.2697 56.8493 18.9643 57.6785 19.4643C58.5023 19.9699 59.45 20.2378 60.4166 20.2381H77.3809V29.0476H60.8333C59.7851 29.0585 58.7584 29.346 57.8571 29.881C56.9623 30.4149 56.2234 31.1743 55.7142 32.0833C55.1918 32.9882 54.9167 34.0147 54.9167 35.0595C54.9167 36.1044 55.1918 37.1309 55.7142 38.0357C56.2317 38.9229 56.9699 39.6611 57.8571 40.1786C58.7642 40.6928 59.7905 40.9596 60.8333 40.9524H79.8214V50H59.5237Z" fill="#F2F2F2"/>
<path d="M87.738 50V-7.72276e-06H108.69C111.833 -0.0502418 114.934 0.730008 117.679 2.2619C120.304 3.6512 122.52 5.70329 124.107 8.21428C125.776 11.1449 126.581 14.4881 126.429 17.8571C126.485 21.0914 125.662 24.2803 124.048 27.0833C122.504 29.7055 120.284 31.8642 117.619 33.3333C114.886 34.9067 111.785 35.7282 108.631 35.7143H97.9166V50H87.738ZM97.9761 26.5476H107.143C108.671 26.5686 110.182 26.2215 111.548 25.5357C112.856 24.8567 113.948 23.8259 114.702 22.5595C115.527 21.1111 115.939 19.464 115.893 17.7976C115.939 16.1313 115.527 14.4841 114.702 13.0357C113.951 11.7673 112.858 10.736 111.548 10.0595C110.188 9.35082 108.676 8.98313 107.143 8.98809H97.619L97.9761 26.5476Z" fill="#F2F2F2"/>
<path d="M146.012 50C143.354 50.0298 140.74 49.3298 138.452 47.9762C136.208 46.6699 134.342 44.8035 133.036 42.5595C131.672 40.2957 130.951 37.7025 130.952 35.0595C130.948 33.099 131.396 31.1638 132.262 29.4048C133.121 27.6443 134.313 26.0674 135.774 24.7619C134.313 23.4564 133.121 21.8796 132.262 20.1191C131.408 18.3983 130.96 16.5045 130.952 14.5834C130.913 11.9888 131.593 9.43408 132.917 7.2024C134.21 5.03543 136.033 3.23291 138.214 1.9643C140.464 0.632663 143.04 -0.047404 145.655 1.68816e-05H166.25V8.98811H146.786C145.819 8.98847 144.871 9.25629 144.048 9.76192C143.218 10.2619 142.524 10.9566 142.024 11.7857C141.513 12.6293 141.245 13.5974 141.25 14.5834C141.25 15.55 141.518 16.4976 142.024 17.3214C142.524 18.1506 143.218 18.8453 144.048 19.3453C144.871 19.8509 145.819 20.1187 146.786 20.1191H163.809V29.0476H147.202C146.154 29.0585 145.128 29.346 144.226 29.881C143.331 30.4149 142.592 31.1743 142.083 32.0834C141.561 32.9882 141.286 34.0147 141.286 35.0595C141.286 36.1044 141.561 37.1309 142.083 38.0357C142.601 38.9229 143.339 39.6611 144.226 40.1786C145.133 40.6928 146.16 40.9596 147.202 40.9524H166.19V50H146.012Z" fill="#F2F2F2"/>
<path d="M191.012 47.9762C188.813 46.672 187.004 44.8013 185.774 42.5595C184.537 40.2762 183.902 37.7156 183.929 35.119V8.9881H170V0H208.333V8.9881H194.167" fill="#FF4343"/>
<path d="M183.75 50V0H193.988V20.7738H203.512C205.033 20.7935 206.539 20.4679 207.917 19.8214C209.21 19.2042 210.304 18.2346 211.071 17.0238C211.882 15.7001 212.296 14.1711 212.262 12.619V0H222.5V12.5595C222.587 15.65 221.803 18.7027 220.238 21.369C218.774 23.8125 216.729 25.857 214.286 27.3214L220.238 39.9405C220.357 40.2535 220.591 40.5091 220.893 40.6548C221.226 40.7255 221.571 40.7255 221.905 40.6548H226.786V50H220.238C218.151 50.0983 216.081 49.5808 214.286 48.5119C212.762 47.5402 211.545 46.1576 210.774 44.5238L203.631 29.7619H193.988V50H183.75Z" fill="#FF4343"/>
<path d="M249.524 50C246.787 50.0645 244.086 49.3636 241.726 47.9762C239.527 46.672 237.718 44.8013 236.488 42.5595C235.251 40.2762 234.616 37.7156 234.643 35.1191V0H244.881V36.3095C244.872 36.9288 244.989 37.5435 245.224 38.1164C245.459 38.6893 245.808 39.2086 246.25 39.6429C246.671 40.0856 247.179 40.436 247.743 40.6716C248.307 40.9073 248.913 41.0232 249.524 41.0119H262.738V50H249.524Z" fill="#F2F2F2"/>
<path d="M281.964 50C279.307 50.0298 276.692 49.3297 274.405 47.9762C272.161 46.6699 270.294 44.8035 268.988 42.5595C267.634 40.2723 266.934 37.6575 266.964 35C266.96 33.0394 267.408 31.1043 268.274 29.3452C269.133 27.5847 270.325 26.0079 271.786 24.7024C270.325 23.3969 269.133 21.82 268.274 20.0595C267.411 18.3207 266.962 16.4055 266.964 14.4643C266.925 11.8698 267.605 9.31501 268.929 7.08333C270.222 4.91636 272.045 3.11384 274.226 1.84524C276.471 0.565809 279.024 -0.0724845 281.607 -1.17533e-06H302.202V8.98809H282.738C281.771 8.98845 280.824 9.25627 280 9.7619C279.171 10.2619 278.476 10.9566 277.976 11.7857C277.466 12.6293 277.198 13.5974 277.202 14.5833C277.203 15.5499 277.471 16.4976 277.976 17.3214C278.476 18.1506 279.171 18.8453 280 19.3452C280.824 19.8509 281.771 20.1187 282.738 20.119H299.762V29.0476H283.214C282.166 29.0585 281.139 29.346 280.238 29.8809C279.343 30.4149 278.604 31.1743 278.095 32.0833C277.573 32.9882 277.298 34.0147 277.298 35.0595C277.298 36.1044 277.573 37.1308 278.095 38.0357C278.613 38.9229 279.351 39.6611 280.238 40.1786C281.145 40.6927 282.172 40.9596 283.214 40.9524H302.202V50H281.964Z" fill="#F2F2F2"/>
</g>
<defs>
<clipPath id="clip0">
<rect width="302.202" height="50" fill="white"/>
</clipPath>
</defs>
</svg>
